<svg width="656" height="656" xmlns="http://www.w3.org/2000/svg" xmlns:xlink="http://www.w3.org/1999/xlink" overflow="hidden"><defs><clipPath id="clip0"><rect x="296" y="18" width="656" height="656"/></clipPath></defs><g clip-path="url(#clip0)" transform="translate(-296 -18)"><path d="M401.5 234.5C401.5 204.676 425.676 180.5 455.5 180.5L793.501 180.5C823.324 180.5 847.5 204.676 847.5 234.5L847.5 450.491C847.5 480.314 823.324 504.491 793.501 504.491L455.5 504.491C425.676 504.491 401.5 480.314 401.5 450.491Z" stroke="#231F20" stroke-width="13.3333" stroke-miterlimit="8" fill="#D1D3D4" fill-rule="evenodd"/><path d="M454.632 219.5 483.368 219.5C492.83 219.5 500.5 227.17 500.5 236.632L500.5 283.5 437.5 283.5 437.5 236.632C437.5 227.17 445.17 219.5 454.632 219.5Z" stroke="#231F20" stroke-width="13.3333" stroke-miterlimit="8" fill="#FAC499" fill-rule="evenodd"/><path d="M500.5 283.5 547.568 283.5C556.919 283.5 564.5 291.081 564.5 300.433L564.5 347.5 500.5 347.5Z" stroke="#231F20" stroke-width="13.3333" stroke-miterlimit="8" fill="#FCD06D" fill-rule="evenodd"/><path d="M500.5 475.5 454.168 475.5C444.963 475.5 437.5 468.038 437.5 458.832L437.5 411.5 500.5 411.5Z" stroke="#231F20" stroke-width="13.3333" stroke-miterlimit="8" fill="#F36C00" fill-rule="evenodd"/><path d="M772.632 217.5 801.369 217.5C810.83 217.5 818.5 225.17 818.5 234.632L818.5 281.5 755.5 281.5 755.5 234.632C755.5 225.17 763.17 217.5 772.632 217.5Z" stroke="#231F20" stroke-width="13.3333" stroke-miterlimit="8" fill="#377BC9" fill-rule="evenodd"/><path d="M691.5 346.5 691.5 299.433C691.5 290.081 699.081 282.5 708.433 282.5L755.5 282.5 755.5 346.5Z" stroke="#231F20" stroke-width="13.3333" stroke-miterlimit="8" fill="#51BAFF" fill-rule="evenodd"/><path d="M818.5 411.5 818.5 457.832C818.5 467.038 811.038 474.5 801.832 474.5L755.5 474.5 755.5 411.5Z" stroke="#231F20" stroke-width="13.3333" stroke-miterlimit="8" fill="#092E77" fill-rule="evenodd"/><rect x="437.5" y="283.5" width="63" height="64" stroke="#231F20" stroke-width="13.3333" stroke-miterlimit="8" fill="#F8A766"/><rect x="437.5" y="347.5" width="63" height="64" stroke="#231F20" stroke-width="13.3333" stroke-miterlimit="8" fill="#F58933"/><rect x="500.5" y="347.5" width="64" height="63" stroke="#231F20" stroke-width="13.3333" stroke-miterlimit="8" fill="#FBC13D"/><rect x="500.5" y="411.5" width="64" height="64" stroke="#231F20" stroke-width="13.3333" stroke-miterlimit="8" fill="#FAB10C"/><rect x="564.5" y="347.5" width="63" height="63" stroke="#231F20" stroke-width="13.3333" stroke-miterlimit="8" fill="#FDD98A"/><rect x="564.5" y="411.5" width="63" height="64" stroke="#231F20" stroke-width="13.3333" stroke-miterlimit="8" fill="#FBC13D"/><rect x="627.5" y="347.5" width="64" height="63" stroke="#231F20" stroke-width="13.3333" stroke-miterlimit="8" fill="#9EDCFF"/><rect x="627.5" y="411.5" width="64" height="64" stroke="#231F20" stroke-width="13.3333" stroke-miterlimit="8" fill="#86D3FF"/><rect x="691.5" y="347.5" width="64" height="63" stroke="#231F20" stroke-width="13.3333" stroke-miterlimit="8" fill="#2094E8"/><rect x="755.5" y="346.5" width="63" height="64" stroke="#231F20" stroke-width="13.3333" stroke-miterlimit="8" fill="#00338D"/><rect x="691.5" y="411.5" width="64" height="63" stroke="#231F20" stroke-width="13.3333" stroke-miterlimit="8" fill="#0071CC"/><rect x="755.5" y="282.5" width="63" height="64" stroke="#231F20" stroke-width="13.3333" stroke-miterlimit="8" fill="#1F56A6"/><path d="M627.733 121.5C635.448 121.5 642.25 124.303 646.266 128.567L648.24 131.175 682.403 131.175C687.427 131.175 691.5 134.096 691.5 137.699L691.5 173.976C691.5 177.579 687.427 180.5 682.403 180.5L573.597 180.5C568.573 180.5 564.5 177.579 564.5 173.976L564.5 137.699C564.5 134.096 568.573 131.175 573.597 131.175L607.226 131.175 609.2 128.567C613.216 124.303 620.018 121.5 627.733 121.5Z" stroke="#231F20" stroke-width="13.3333" stroke-miterlimit="8" fill="#323133" fill-rule="evenodd"/><path d="M596.5 155.5 637.945 155.5" stroke="#231F20" stroke-width="13.3333" stroke-linecap="round" stroke-miterlimit="8" fill="none" fill-rule="evenodd"/><path d="M653.5 155.5C653.5 152.186 656.186 149.5 659.5 149.5 662.814 149.5 665.5 152.186 665.5 155.5 665.5 158.814 662.814 161.5 659.5 161.5 656.186 161.5 653.5 158.814 653.5 155.5Z" stroke="#231F20" stroke-width="1.33333" stroke-miterlimit="8" fill-rule="evenodd"/><path d="M440.501 538.5 808.499 538.5C830.039 538.5 847.5 550.696 847.5 565.741L847.5 567.5 401.5 567.5 401.5 565.741C401.5 550.696 418.961 538.5 440.501 538.5Z" stroke="#231F20" stroke-width="13.3333" stroke-miterlimit="8" fill="#323133" fill-rule="evenodd"/><rect x="691.5" y="506.5" width="64" height="32" stroke="#231F20" stroke-width="13.3333" stroke-miterlimit="8" fill="#323133"/><rect x="500.5" y="504.5" width="64" height="32" stroke="#231F20" stroke-width="13.3333" stroke-miterlimit="8" fill="#323133"/></g></svg>